<mxfile host="app.diagrams.net" modified="2023-07-20T02:10:20.241Z" agent="Mozilla/5.0 (Windows NT 10.0; Win64; x64) AppleWebKit/537.36 (KHTML, like Gecko) Chrome/114.0.0.0 Safari/537.36 Edg/114.0.1823.86" etag="9Jrcl9v_k4zSuyzTpd6x" version="21.6.3" type="github">
  <diagram name="第 1 页" id="N9j8el6bGI6gT26Ja4TE">
    <mxGraphModel dx="1139" dy="616" grid="1" gridSize="10" guides="1" tooltips="1" connect="1" arrows="1" fold="1" page="1" pageScale="1" pageWidth="827" pageHeight="1169" math="0" shadow="0">
      <root>
        <mxCell id="0" />
        <mxCell id="1" parent="0" />
        <mxCell id="5dQCeBufew7C2zDJRPak-3" style="edgeStyle=orthogonalEdgeStyle;rounded=0;orthogonalLoop=1;jettySize=auto;html=1;exitX=0.5;exitY=1;exitDx=0;exitDy=0;entryX=0.5;entryY=0;entryDx=0;entryDy=0;" edge="1" parent="1" source="5dQCeBufew7C2zDJRPak-1" target="5dQCeBufew7C2zDJRPak-2">
          <mxGeometry relative="1" as="geometry" />
        </mxCell>
        <mxCell id="5dQCeBufew7C2zDJRPak-1" value="NettyServer" style="rounded=1;whiteSpace=wrap;html=1;" vertex="1" parent="1">
          <mxGeometry x="220" y="280" width="140" height="60" as="geometry" />
        </mxCell>
        <mxCell id="5dQCeBufew7C2zDJRPak-8" style="edgeStyle=orthogonalEdgeStyle;rounded=0;orthogonalLoop=1;jettySize=auto;html=1;exitX=1;exitY=0.5;exitDx=0;exitDy=0;entryX=0;entryY=0.5;entryDx=0;entryDy=0;curved=1;" edge="1" parent="1" source="5dQCeBufew7C2zDJRPak-2" target="5dQCeBufew7C2zDJRPak-5">
          <mxGeometry relative="1" as="geometry" />
        </mxCell>
        <mxCell id="5dQCeBufew7C2zDJRPak-9" style="edgeStyle=orthogonalEdgeStyle;curved=1;rounded=0;orthogonalLoop=1;jettySize=auto;html=1;exitX=1;exitY=0.5;exitDx=0;exitDy=0;entryX=0;entryY=0.5;entryDx=0;entryDy=0;" edge="1" parent="1" source="5dQCeBufew7C2zDJRPak-2" target="5dQCeBufew7C2zDJRPak-6">
          <mxGeometry relative="1" as="geometry" />
        </mxCell>
        <mxCell id="5dQCeBufew7C2zDJRPak-10" style="edgeStyle=orthogonalEdgeStyle;curved=1;rounded=0;orthogonalLoop=1;jettySize=auto;html=1;exitX=1;exitY=0.5;exitDx=0;exitDy=0;entryX=0;entryY=0.5;entryDx=0;entryDy=0;" edge="1" parent="1" source="5dQCeBufew7C2zDJRPak-2" target="5dQCeBufew7C2zDJRPak-7">
          <mxGeometry relative="1" as="geometry" />
        </mxCell>
        <mxCell id="5dQCeBufew7C2zDJRPak-17" style="edgeStyle=orthogonalEdgeStyle;curved=1;rounded=0;orthogonalLoop=1;jettySize=auto;html=1;exitX=1;exitY=0.5;exitDx=0;exitDy=0;entryX=0;entryY=0.5;entryDx=0;entryDy=0;" edge="1" parent="1" source="5dQCeBufew7C2zDJRPak-2" target="5dQCeBufew7C2zDJRPak-14">
          <mxGeometry relative="1" as="geometry" />
        </mxCell>
        <mxCell id="5dQCeBufew7C2zDJRPak-2" value="SessionChannelInitializer" style="rounded=1;whiteSpace=wrap;html=1;" vertex="1" parent="1">
          <mxGeometry x="220" y="420" width="140" height="60" as="geometry" />
        </mxCell>
        <mxCell id="5dQCeBufew7C2zDJRPak-4" value="设置拦截器初始化器" style="text;html=1;strokeColor=none;fillColor=none;align=center;verticalAlign=middle;whiteSpace=wrap;rounded=0;" vertex="1" parent="1">
          <mxGeometry x="160" y="360" width="140" height="30" as="geometry" />
        </mxCell>
        <mxCell id="5dQCeBufew7C2zDJRPak-5" value="HttpRequestDecoder" style="rounded=1;whiteSpace=wrap;html=1;" vertex="1" parent="1">
          <mxGeometry x="444" y="290" width="120" height="60" as="geometry" />
        </mxCell>
        <mxCell id="5dQCeBufew7C2zDJRPak-6" value="HttpResponseEncoder" style="rounded=1;whiteSpace=wrap;html=1;" vertex="1" parent="1">
          <mxGeometry x="440" y="375" width="120" height="60" as="geometry" />
        </mxCell>
        <mxCell id="5dQCeBufew7C2zDJRPak-7" value="HttpObjectAggregator" style="rounded=1;whiteSpace=wrap;html=1;" vertex="1" parent="1">
          <mxGeometry x="440" y="470" width="120" height="60" as="geometry" />
        </mxCell>
        <mxCell id="5dQCeBufew7C2zDJRPak-11" value="add" style="text;html=1;strokeColor=none;fillColor=none;align=center;verticalAlign=middle;whiteSpace=wrap;rounded=0;" vertex="1" parent="1">
          <mxGeometry x="354" y="370" width="60" height="30" as="geometry" />
        </mxCell>
        <mxCell id="5dQCeBufew7C2zDJRPak-12" value="add" style="text;html=1;strokeColor=none;fillColor=none;align=center;verticalAlign=middle;whiteSpace=wrap;rounded=0;" vertex="1" parent="1">
          <mxGeometry x="384" y="410" width="60" height="30" as="geometry" />
        </mxCell>
        <mxCell id="5dQCeBufew7C2zDJRPak-13" value="add" style="text;html=1;strokeColor=none;fillColor=none;align=center;verticalAlign=middle;whiteSpace=wrap;rounded=0;" vertex="1" parent="1">
          <mxGeometry x="360" y="525" width="60" height="30" as="geometry" />
        </mxCell>
        <mxCell id="5dQCeBufew7C2zDJRPak-14" value="SessionServerHandler" style="rounded=1;whiteSpace=wrap;html=1;" vertex="1" parent="1">
          <mxGeometry x="444" y="555" width="120" height="60" as="geometry" />
        </mxCell>
        <mxCell id="5dQCeBufew7C2zDJRPak-18" value="add" style="text;html=1;strokeColor=none;fillColor=none;align=center;verticalAlign=middle;whiteSpace=wrap;rounded=0;" vertex="1" parent="1">
          <mxGeometry x="384" y="460" width="60" height="30" as="geometry" />
        </mxCell>
      </root>
    </mxGraphModel>
  </diagram>
</mxfile>
